<?xml version="1.0" standalone="no"?>
<!DOCTYPE svg PUBLIC "-//W3C//DTD SVG 20010904//EN"
 "http://www.w3.org/TR/2001/REC-SVG-20010904/DTD/svg10.dtd">
<svg version="1.0" xmlns="http://www.w3.org/2000/svg"
 width="548.000000pt" height="548.000000pt" viewBox="0 0 548.000000 548.000000"
 preserveAspectRatio="xMidYMid meet">
<metadata>
Created by potrace 1.14, written by Peter Selinger 2001-2017
</metadata>
<g transform="translate(0.000000,548.000000) scale(0.100000,-0.100000)"
fill="#000000" stroke="none">
<path d="M2170 5275 c0 -5 76 -120 93 -140 4 -5 48 -68 97 -140 49 -71 94
-137 100 -145 5 -8 48 -71 95 -140 46 -69 88 -129 92 -135 11 -13 471 -682
571 -830 41 -60 83 -119 93 -131 11 -11 19 -23 19 -27 0 -3 36 -58 81 -121
l81 -116 -138 -197 c-76 -109 -147 -211 -158 -228 -12 -16 -23 -32 -27 -35 -3
-3 -16 -23 -29 -45 -14 -22 -32 -49 -42 -60 -9 -11 -16 -24 -15 -30 1 -6 54
-10 126 -10 l124 -1 66 101 c36 55 69 102 74 103 4 2 7 8 7 12 0 7 121 194
134 208 2 1 38 -51 81 -115 43 -65 81 -120 84 -123 14 -12 51 -70 51 -79 0 -5
4 -11 8 -13 5 -1 28 -32 52 -68 24 -36 48 -69 52 -75 24 -29 88 -127 88 -135
0 -4 4 -10 8 -12 4 -1 52 -68 107 -148 54 -80 102 -146 107 -148 4 -2 8 -8 8
-12 0 -5 31 -53 68 -107 103 -147 170 -245 263 -383 46 -69 87 -127 90 -130 3
-3 54 -77 114 -165 60 -88 146 -213 192 -278 46 -65 83 -121 83 -125 0 -3 8
-15 19 -26 17 -20 194 -276 216 -314 6 -9 13 -19 16 -22 13 -12 139 -203 139
-211 0 -5 5 -9 10 -9 6 0 10 74 10 201 l0 201 -63 92 c-35 50 -84 120 -108
156 -24 36 -47 70 -52 75 -4 6 -62 89 -128 185 -66 96 -141 206 -167 243 -26
37 -51 75 -57 84 -5 10 -18 26 -27 37 -10 11 -18 23 -18 27 0 4 -6 14 -12 21
-7 8 -17 21 -23 30 -10 18 -109 161 -373 543 -105 152 -139 200 -207 300 -37
55 -83 121 -102 146 -18 26 -33 51 -33 57 0 6 -4 12 -8 14 -8 3 -103 135 -127
176 -5 9 -12 19 -15 22 -3 3 -34 48 -70 100 -35 52 -87 128 -115 168 -27 40
-54 80 -60 90 -5 9 -12 19 -15 22 -3 3 -24 32 -46 65 -23 33 -61 88 -85 123
-24 35 -48 70 -54 79 -5 9 -16 24 -22 32 -12 15 -146 210 -307 446 -59 87
-187 272 -286 415 -6 8 -105 152 -220 320 -115 168 -215 313 -222 323 -11 15
-30 17 -150 17 -76 0 -138 -2 -138 -5z"/>
<path d="M3919 3969 c-10 -15 -19 -32 -19 -37 0 -6 -4 -12 -8 -14 -4 -1 -35
-44 -69 -95 l-61 -91 61 -90 c45 -67 63 -87 71 -79 20 22 66 86 66 92 0 4 6
12 13 19 6 8 39 53 72 101 33 48 79 114 103 146 23 33 42 63 42 67 0 4 -57 8
-126 8 -125 -1 -126 -1 -145 -27z"/>
<path d="M0 3363 l0 -628 120 0 120 0 1 25 c1 32 1 1166 0 1203 l-1 27 -120 0
-120 0 0 -627z"/>
<path d="M507 3983 c-4 -3 -7 -285 -7 -625 l0 -618 28 -1 c95 -3 204 0 210 5
3 4 6 98 7 209 l0 202 119 0 119 0 64 -104 c34 -57 63 -104 63 -106 0 -1 29
-49 64 -106 l65 -103 126 1 c70 1 129 4 132 7 3 3 -21 47 -52 98 -32 51 -63
102 -69 113 -36 66 -132 221 -138 223 -19 8 -5 31 35 57 107 70 167 183 172
320 4 117 -38 226 -117 308 -58 59 -93 82 -163 105 -54 19 -87 21 -356 21
-163 0 -299 -2 -302 -6z m600 -228 c61 -36 102 -120 97 -197 -4 -50 -38 -126
-70 -153 -36 -31 -62 -35 -238 -35 l-152 0 2 198 c0 108 2 199 3 203 0 3 74 5
164 4 140 -1 167 -4 194 -20z"/>
<path d="M1669 3967 c0 -12 -2 -293 -2 -625 l-2 -602 25 -1 c32 -1 797 -1 830
0 l25 1 -1 98 c-1 53 -2 100 -3 105 -1 4 -143 7 -316 7 l-315 0 0 519 0 520
-120 0 c-118 1 -120 0 -121 -22z"/>
<path d="M2690 3365 l0 -625 28 -1 c116 -3 203 -1 209 4 4 5 8 1124 3 1234 0
8 -36 12 -120 12 l-120 1 0 -625z"/>
<path d="M3372 2660 c-4 -3 -7 -206 -7 -452 l0 -448 45 -1 c51 -1 93 1 98 6 2
2 4 24 4 49 l0 46 48 -43 c141 -127 357 -72 448 112 24 49 27 67 26 146 0 50
-3 99 -5 110 -10 47 -56 123 -96 162 -105 101 -284 95 -370 -13 l-29 -36 1
177 c0 107 -4 179 -10 183 -12 8 -143 10 -153 2z m393 -395 c61 -25 112 -124
103 -202 -16 -137 -137 -210 -252 -153 -66 33 -81 61 -82 160 -1 79 1 88 28
127 47 70 130 97 203 68z"/>
<path d="M2109 2411 c-39 -13 -70 -31 -104 -62 -38 -36 -47 -36 -45 -1 5 65 6
63 -72 60 l-72 -3 -1 -440 c-1 -242 2 -447 6 -456 6 -12 22 -15 76 -13 37 1
73 2 78 3 6 1 10 67 9 181 l-2 180 44 -39 c23 -22 59 -47 80 -56 55 -23 149
-19 209 9 166 77 225 324 119 503 -28 48 -116 123 -144 123 -10 0 -21 4 -24 8
-7 11 -123 13 -157 3z m83 -142 c78 -21 130 -106 124 -200 -11 -150 -159 -230
-264 -142 -59 48 -70 78 -67 173 1 47 5 92 9 100 7 17 71 62 101 72 31 9 56 9
97 -3z"/>
<path d="M2598 2398 c-3 -7 -4 -120 -3 -250 l1 -237 30 -57 c41 -82 91 -107
195 -102 85 5 146 29 197 79 34 34 44 33 49 -4 6 -39 11 -46 48 -61 30 -13 65
-15 120 -7 6 0 10 30 10 66 0 53 -3 66 -17 71 -22 7 -20 -15 -24 264 -1 129
-3 238 -3 243 -2 13 -161 8 -162 -5 -1 -7 -2 -98 -3 -203 -1 -166 -3 -194 -19
-220 -28 -45 -80 -77 -136 -83 -42 -4 -53 -1 -75 20 -14 13 -30 37 -35 54 -5
16 -9 120 -9 229 0 110 -1 203 -1 208 -1 13 -158 8 -163 -5z"/>
</g>
</svg>
